<svg xmlns="http://www.w3.org/2000/svg" id="Grupo_45" data-name="Grupo 45" width="68.437" height="68.711" viewBox="0 0 68.437 68.711"><path id="Trazado_86" data-name="Trazado 86" d="M1769.877,443.12a3.351,3.351,0,0,0,1.425-.323,30.407,30.407,0,0,1,5.9,12.143l1.365-.316a31.734,31.734,0,0,0-6.151-12.68,3.34,3.34,0,1,0-2.537,1.175Zm0-5.288a1.944,1.944,0,1,1-1.944,1.94A1.944,1.944,0,0,1,1769.877,437.833Z" transform="translate(-1713.405 -427.426)" fill="currentColor"></path><path id="Trazado_87" data-name="Trazado 87" d="M1747.748,561.26a3.34,3.34,0,0,0-2.933,4.951,30.4,30.4,0,0,1-12.375,6.151l.323,1.365a31.8,31.8,0,0,0,12.982-6.456,3.3,3.3,0,0,0,2.01.677,3.344,3.344,0,1,0,0-6.687Zm0,5.284a1.94,1.94,0,1,1,1.94-1.94,1.94,1.94,0,0,1-1.94,1.94Z" transform="translate(-1691.276 -508.451)" fill="currentColor"></path><path id="Trazado_88" data-name="Trazado 88" d="M1644.626,432.786a3.351,3.351,0,0,0,3.344-3.347,3.3,3.3,0,0,0-.512-1.754,30.458,30.458,0,0,1,12-5.8l-.316-1.368a31.807,31.807,0,0,0-12.663,6.133,3.344,3.344,0,1,0-1.856,6.126Zm0-5.288a1.944,1.944,0,1,1-1.944,1.94A1.944,1.944,0,0,1,1644.626,427.5Z" transform="translate(-1632.104 -417.092)" fill="currentColor"></path><path id="Trazado_89" data-name="Trazado 89" d="M1633.349,540.611a3.291,3.291,0,0,0-1.547.382,30.5,30.5,0,0,1-5.67-11.544l-1.361.333a31.812,31.812,0,0,0,5.965,12.1,3.34,3.34,0,1,0,2.624-1.277Zm0,5.284a1.94,1.94,0,1,1,1.94-1.94,1.94,1.94,0,0,1-1.94,1.94Z" transform="translate(-1621.384 -487.802)" fill="currentColor"></path><path id="Trazado_90" data-name="Trazado 90" d="M1621.807,478.381a3.347,3.347,0,0,0-2.646-3.267,29.965,29.965,0,0,1,4.165-12.382l-1.2-.723a31.315,31.315,0,0,0-4.375,13.1,3.344,3.344,0,1,0,4.056,3.267Zm-3.347,1.94a1.94,1.94,0,1,1,1.944-1.94A1.94,1.94,0,0,1,1618.46,480.322Z" transform="translate(-1615.119 -444.024)" fill="currentColor"></path><path id="Trazado_91" data-name="Trazado 91" d="M1795.13,502.485a3.344,3.344,0,1,0-4.046,3.27A29.914,29.914,0,0,1,1787,518l1.2.719a31.313,31.313,0,0,0,4.291-12.982A3.343,3.343,0,0,0,1795.13,502.485Zm-3.344,1.94a1.94,1.94,0,1,1,1.94-1.94A1.94,1.94,0,0,1,1791.786,504.425Z" transform="translate(-1726.693 -468.128)" fill="currentColor"></path><path id="Trazado_92" data-name="Trazado 92" d="M1681.891,584.2a3.344,3.344,0,0,0-3.231,2.505A30.354,30.354,0,0,1,1666,582.39l-.737,1.193a31.819,31.819,0,0,0,13.333,4.526,3.34,3.34,0,1,0,3.291-3.912Zm0,5.284a1.94,1.94,0,1,1,1.94-1.94A1.94,1.94,0,0,1,1681.891,589.481Z" transform="translate(-1647.667 -522.167)" fill="currentColor"></path><path id="Trazado_93" data-name="Trazado 93" d="M1706.472,417.437a3.351,3.351,0,0,0,3.235-2.505,30.343,30.343,0,0,1,12.852,4.438l.744-1.189a31.746,31.746,0,0,0-13.536-4.653,3.344,3.344,0,1,0-3.295,3.909Zm0-5.284a1.94,1.94,0,1,1-1.94,1.94A1.94,1.94,0,0,1,1706.472,412.153Z" transform="translate(-1672.248 -410.749)" fill="currentColor"></path><path id="Trazado_94" data-name="Trazado 94" d="M1676.046,484.915l-1.839,10.715,9.624-5.07,9.624,5.059-1.839-10.715,7.789-7.589-10.761-1.565L1683.831,466l-4.81,9.751-10.761,1.565Zm3.905-7.87,3.88-7.863,3.881,7.863,8.677,1.26-6.277,6.119,1.481,8.642-7.761-4.081-7.761,4.081,1.484-8.642-6.281-6.119Z" transform="translate(-1649.615 -446.614)" fill="currentColor"></path><path id="Trazado_95" data-name="Trazado 95" d="M1657.369,486.677l-.653-1.246-4.025,2.116.832-4.842L1650,479.274l4.863-.705,2.175-4.407,2.014,4.074,1.256-.621-3.27-6.624-3.105,6.295-6.947,1.01,5.024,4.9-1.186,6.919Z" transform="translate(-1635.807 -449.854)" fill="currentColor"></path><path id="Trazado_96" data-name="Trazado 96" d="M1746.7,477.285l-3.109-6.295-3.27,6.624,1.26.621,2.01-4.074,2.175,4.407,4.863.705-3.519,3.431.832,4.842-4.025-2.116-.653,1.246,6.54,3.435-1.186-6.919,5.028-4.9Z" transform="translate(-1696.391 -449.854)" fill="currentColor"></path></svg>