<?xml version="1.0" encoding="UTF-8"?>
<svg id="Layer_1" data-name="Layer 1" xmlns="http://www.w3.org/2000/svg" viewBox="0 0 24 24">
  <defs>
    <style>
      .cls-1 {
        fill: #e27136;
      }
    </style>
  </defs>
  <path class="cls-1" d="M10.69,23.2c-3.43-.24-6.8-2.64-8.48-5.58C-2.58,9.2,4.76-.92,14.24.93c4.63.9,8.55,5.01,8.97,9.76,0,.07,0,.14.02.21l.07.06v2.12l-.07.06c-.03.07,0,.14-.02.21-.44,4.96-4.86,9.51-9.87,9.87-.1,0-.2-.02-.29.02l-.06.07h-1.94l-.06-.07c-.1-.03-.2,0-.29-.02ZM11.66,1.52c-.52-.04-1.12.24-1.56.51-1.31.8-2.21,2.46-2.76,3.85,1.41.35,2.86.6,4.32.57V1.52ZM12.37,1.52v4.94c1.46.03,2.91-.24,4.32-.57-.56-1.39-1.45-3.05-2.76-3.85-.44-.27-1.04-.55-1.56-.51ZM9.06,1.88v.09c.06-.03.06-.06,0-.09ZM19.59,4.78c.08-.12-.46-.6-.57-.7-1.12-1-2.64-1.84-4.1-2.2,1.04,1.08,1.94,2.35,2.38,3.79.1.14,2-.8,2.29-.88ZM8.93,1.96c-.18-.16-1.94.73-2.23.9-.53.31-1.23.81-1.69,1.22-.11.1-.66.59-.57.7.29.07,2.19,1.02,2.29.88.14-.63.53-1.21.81-1.79l1.39-1.91ZM1.44,11.66h4.14c-.02-.69.02-1.38.1-2.06.13-1.13.48-2.21.69-3.31-.6.08-2.05-.98-2.42-.97-.11,0-.15.06-.22.13-.3.31-.73,1.04-.95,1.43-.81,1.46-1.25,3.11-1.34,4.79ZM22.59,11.66c-.1-1.68-.53-3.31-1.34-4.79-.22-.39-.65-1.12-.95-1.43-.07-.07-.11-.13-.22-.13-.38,0-1.82,1.05-2.42.97.22,1.11.56,2.19.69,3.31.08.69.12,1.37.1,2.06h4.14ZM11.66,7.16c-1.55.03-3.1-.21-4.58-.62-.49,1.65-.82,3.38-.79,5.11h5.38v-4.49ZM12.37,7.16v4.49h5.38c.04-1.73-.3-3.46-.79-5.11-1.49.41-3.04.65-4.58.62ZM5.58,12.36H1.44c.11,1.75.57,3.5,1.46,5.02.19.32.58.94.83,1.2.07.07.11.14.22.13.07,0,.86-.47,1.04-.55.45-.2.91-.37,1.38-.52-.45-1.72-.86-3.49-.79-5.28ZM11.66,12.36h-5.38c0,1.33.16,2.75.5,4.04.08.31.16,1.03.5.98,1.43-.38,2.9-.57,4.37-.61v-4.41ZM17.74,12.36h-5.38v4.41c1.55.02,3.07.31,4.58.61.51-1.61.82-3.32.8-5.02ZM22.59,12.36h-4.14c.07,1.8-.34,3.56-.79,5.28l2.5,1.05c1.53-1.74,2.3-4.04,2.43-6.33ZM11.66,17.47c-1.45.13-2.93.18-4.32.67.54,1.39,1.46,3.05,2.76,3.84.44.27,1.04.55,1.56.51v-5.02ZM12.37,17.47v5.02c.52.04,1.12-.24,1.56-.51,1.31-.8,2.21-2.45,2.76-3.85-1.39-.48-2.87-.54-4.32-.66ZM6.72,18.36c-.14-.13-1.91.63-2.14.8-.07.05-.17.08-.14.2s.85.8,1.01.93c1.05.84,2.34,1.54,3.65,1.85-1.03-1.08-1.94-2.35-2.38-3.79ZM14.92,22.14c1.47-.37,2.96-1.2,4.1-2.2.11-.1.6-.54.57-.66-.25-.25-2.12-1.07-2.29-.92-.44,1.44-1.35,2.7-2.38,3.79Z"/>
</svg>